# xmcd
#
# Track frame offsets: 
#        150
#        12273
#        45225
#        64613
#        89435
#
# Disc length: 1817 seconds
#
# Revision: 0
# Processed by: cddbd v1.5.2PL0 Copyright (c) Steve Scherf et al.
# Submitted via: ExactAudioCopyFreeDBPlugin 1.0
#
DISCID=31071705
DTITLE=Reverend Shine Snake Oil Co. - Anti Solipsism pt. 1 - Creatures
DYEAR=2014
DGENRE=Rhythm and Blues
TTITLE0=The Candidate
TTITLE1=The Truth
TTITLE2=Mrs. Brown
TTITLE3=Hey Now
TTITLE4=Home
EXTD=
EXTT0=
EXTT1=
EXTT2=
EXTT3=
EXTT4=
PLAYORDER=
